<?xml version="1.0" standalone="no"?>
<!DOCTYPE svg PUBLIC "-//W3C//DTD SVG 1.1//EN" "http://www.w3.org/Graphics/SVG/1.1/DTD/svg11.dtd" >
<svg xmlns="http://www.w3.org/2000/svg" xmlns:xlink="http://www.w3.org/1999/xlink" version="1.1" viewBox="-10 0 1034 1024">
   <path fill="currentColor"
d="M584.07 626.55l-22.1201 46.9697q-11.0605 21.5605 -31.6006 55.4404q-20.54 34.6504 -38.71 58.5205q-18.1699 23.0996 -48.1895 51.5898q-30.0205 28.4893 -53.7197 43.8896q-23.7002 15.4004 -43.4502 25.4102q-20.54 10.7803 -28.4404 13.0898l-19.75 7.7002
q-3.9502 1.54004 -6.32031 1.54004q-3.94922 0 -4.73926 -3.08008q-1.58008 -1.54004 -1.58008 -3.08008q0 -2.30957 3.16016 -3.84961l10.2695 -7.7002q4.74023 -3.85059 24.4902 -18.4805q20.54 -14.6299 37.1299 -30.0293q17.3799 -13.8604 48.9805 -48.5107
q32.3896 -33.8799 55.2998 -68.5293q22.9102 -35.4209 43.4502 -78.54q20.5391 -43.1201 34.7598 -87.0107q13.4297 -44.6592 20.54 -73.9199q7.10938 -30.0293 7.89941 -37.7295q0 -9.24023 0.790039 -23.8701q0 -13.8604 -2.37012 -25.4102
q-2.36914 -8.46973 -2.36914 -13.0898v-1.54004q0.789062 -3.84961 4.73926 -6.92969q2.37012 -1.54004 6.32031 -1.54004t10.2695 1.54004q14.2207 3.84961 24.4902 8.46973q10.2705 5.38965 23.7002 13.8604q13.4297 8.46973 18.1699 16.1699
q4.74023 6.15918 4.74023 11.5498q-1.58008 3.84961 -9.48047 13.0898q-7.89941 8.46973 -11.8496 16.9404q-3.9502 7.69922 -11.8496 32.3398l-15.8008 43.1201l-14.2197 38.5l22.9102 31.5693l30.8096 39.2705q17.3799 23.0996 48.1904 56.21
q30.8096 33.1094 60.8301 56.21q30.0195 23.8701 56.8799 42.3496q27.6504 19.25 46.6104 29.2598q18.96 10.0107 53.7197 26.1807t49.7695 22.3301l18.96 6.16016q7.11035 3.0791 7.11035 8.46973v0.769531q0 4.62012 -6.32031 5.39062l-8.68945 2.30957
q-5.53027 0.770508 -25.2803 1.54004l-34.7598 3.84961q-26.8604 2.31055 -64.7803 2.31055q-23.7002 0 -36.3398 -2.31055q-12.6396 -2.30957 -23.7002 -8.46973q-11.0596 -6.16016 -25.2803 -21.5596q-14.2197 -15.4004 -34.7598 -40.04l-35.5498 -46.2002
q-15.0098 -21.5596 -29.2305 -45.4297l-37.9199 -60.8301q-22.1201 -38.5 -28.4395 -47.7402zM689.09 609.56l-9.22949 -6.95996q-2.12988 -1.73926 -2.12988 -2.89941q0 -0.580078 0.709961 -1.16016q1.41992 -1.74023 3.5498 -1.74023q1.41992 0 2.83984 0.580078
l9.93945 2.90039q4.26074 1.73926 21.3008 8.12012q17.04 6.95996 29.1094 9.85938q9.94043 2.32031 17.04 2.32031h2.12988q11.3604 -1.16016 19.8809 -9.28027q8.51953 -8.12012 17.0391 -25.5195q8.52051 -17.4004 16.3301 -35.96q7.81055 -17.9805 14.2002 -43.5
q7.10059 -25.5205 12.0703 -48.7207q4.96973 -22.04 8.51953 -48.7197q4.26074 -26.0996 7.10059 -54.5195q2.83984 -29 4.25977 -35.96q0 -8.12012 -2.83984 -12.7607q-2.83984 -5.21973 -14.2002 -7.54004h-4.96973q-5.68066 0 -15.6201 0.580078l-39.7598 3.48047
l-41.1807 4.63965l-56.7998 8.12012q-48.9902 6.95996 -60.3496 8.7002l-34.0801 6.37988l-18.46 4.05957q-8.52051 1.74023 -14.2002 1.74023h-2.83984q-5.68066 0 -12.7803 -1.74023q-8.51953 -2.31934 -16.3301 -6.37988q-7.80957 -3.47949 -12.0703 -7.54004
q-4.25977 -4.05957 -4.96973 -5.7998v-0.580078q0 -1.74023 2.12988 -3.47949q1.41992 -1.74023 19.8799 -2.90039l26.2705 -1.74023q23.4297 -1.15918 57.5098 -4.63965t63.9004 -8.12012l44.0195 -6.37988l36.21 -5.21973l28.4004 -4.64062l19.1699 -2.89941
q14.2002 -2.32031 30.5303 -6.95996q16.3301 -5.2207 22.7197 -5.2207q7.80957 0 23.4297 4.64062q15.6201 4.63965 34.79 16.2402q19.8799 11.5996 19.8799 19.7197q-0.709961 2.89941 -2.83984 7.54004l-12.0693 16.8193q-5.68066 8.12012 -11.3604 23.2002
q-5.67969 15.6602 -11.3604 49.8799q-5.67969 34.8008 -12.0693 68.4404q-6.39062 33.0596 -12.0703 58q-5.67969 25.5195 -15.6201 55.0996t-22.7197 49.3008q-11.3604 18.5596 -31.2402 35.3799q-19.8799 16.8193 -32.6602 19.1396q-6.38965 1.16016 -11.3604 1.16016
q-4.96973 0 -8.51953 -1.16016q-4.25977 -2.32031 -9.94043 -9.28027l-17.04 -23.7793q-7.80957 -11.0205 -19.1699 -22.6201q-11.3594 -11.6006 -22.0098 -19.7207zM354.156 335.65q1.0127 406.171 0.9375 406.35q-4.09375 5 -0.09375 8l-11 -7q-1 0 -5 5l-11 11l-6 9
q-5 -4 -7 4t-5 3l-1.59961 -4l-6.30078 14q-2.09961 2 -3.59961 2q-0.5 0 2.41211 -177.65q3.08789 -198.35 1.04395 -247.35q-0.956055 -24 -3.13184 -126.65q-0.824219 -44.3496 -35.4961 -80.75q-5.32812 -5.59961 -5.21973 -11.0498q-0.108398 -4.5498 3.13086 -6.7998
q10.7607 -7.75 25.0576 -7.65039q11.7031 -0.0996094 24.0117 5.9502q71.6914 34.9502 74.2109 39.9502q1.48047 3 1.16016 5.9502q-2.67969 6.0498 -8.12012 19.5498q-23.5596 57.5 -23.4033 135.15zM161.2 892.51l-31.9385 26.7803q-11.2617 9.70996 -22.8125 15.4502
q-2.44922 1.25977 -3.82812 1.0293q-2.62109 0.230469 -7.23242 -1.5166q-7.51172 -3.30664 -18.1387 -12.9033l-22.8125 -20.5996q-13.4375 -12.75 -19.0098 -18.8291q-7.02441 -10.251 -6.54102 -14.6865q1.11328 -5.23438 2.67383 -8.20996
q4.43945 -4.02441 15.1387 -3.59473q9.30078 -0.429688 18.9102 -2.4375q14.6094 -4.20703 16.2031 -4.77246l31.9375 -11.3301q1.79199 -0.490234 67.5254 -30.8994l111.325 -51.5l72.0869 -36.0498l15.5117 -7.20996q6.80078 -3.23047 9.28711 -3.09082
q4.51367 -0.139648 6.28223 4.24707q1.23145 1.61328 0.856445 3.9502q0.407227 3.98242 -3.64941 7.25293l-12.7764 10.2998q-37.668 30.082 -66.6123 50.4707l-121.362 85.4893zM537 161q21 0 44 18q29 23 32 34q1 4 1 7q0 10 -6 16q-12 12 -30 37q-40 60 -69 90
q-21 22 -58 54q-21 18 -35 23q-3 1 -5 1q-6 0 -6 -5q0 -2 1 -4q3 -4 11 -16q39 -51 67 -99t46 -100q2 -6 2 -12q0 -10 -5 -21q-3 -7 -3 -12q0 -10 13 -11z" />
</svg>
