<?xml version="1.0" standalone="no"?>
<!DOCTYPE svg PUBLIC "-//W3C//DTD SVG 1.1//EN" "http://www.w3.org/Graphics/SVG/1.1/DTD/svg11.dtd" >
<svg xmlns="http://www.w3.org/2000/svg" xmlns:xlink="http://www.w3.org/1999/xlink" version="1.1" viewBox="-10 0 1034 1024">
   <path fill="currentColor"
d="M177.3 774.77q-1.87988 -3.75977 2.81934 -8.92969q4.7002 -5.16992 15.5107 -7.99023q10.8096 -2.82031 27.2598 -8.92969q16.4502 -6.11035 38.54 -16.9199q22.0898 -10.8105 48.8799 -27.2607q26.79 -16.4492 55.9297 -39.0098q29.1406 -22.5596 55.9307 -47.4697
t52.1699 -54.5205q25.3799 -29.6094 48.8799 -64.8594t44.1797 -72.8506q20.6797 -37.5996 40.4199 -83.6602q19.7402 -46.0596 30.0801 -76.1396t14.1006 -51.2295q3.75977 -21.1504 3.75977 -31.4902q-0.94043 -13.1602 -5.64062 -22.5605l-9.39941 -16.9199
q-1.87988 -5.63965 0 -10.3398t13.1602 -5.63965q7.51953 0 21.6201 4.22949q14.0996 4.23047 25.8496 10.8105t32.9004 20.21q21.1494 13.6299 31.4893 24.9102q10.3398 10.3398 6.58008 17.8594q-1.87988 1.87988 -10.3398 9.40039q-8.45996 7.51953 -17.3896 19.7402
q-8.93066 12.2197 -23.0303 42.2998t-39.9502 80.8398q-25.8496 50.7598 -50.29 93.0596q-24.4395 42.3008 -53.1094 80.8408q-28.6709 38.54 -62.9805 73.79t-76.1396 68.1494q-41.8301 32.9004 -85.54 54.9902t-74.7305 31.4902q-31.0195 9.39941 -48.4102 13.1602
q-17.3896 3.75977 -28.1992 4.69922q-10.8105 0.94043 -17.8604 -0.469727t-7.0498 -3.29004zM291 821l438 -38l28 -3l55 -5q36 -6 43 -6q12 0 24 5q14 5 25 11q11 7 35 24q23 17 23 27v1q0 12 -5 16q-3 3 -10 3q-3 0 -8 -1q-13 0 -56 -1q-44 -1 -52 -1l-77 -4q-19 -1 -71 2
q-44 3 -146 8q-80 4 -138 10q-38 4 -82 11t-68 12q-25 5 -47 11q-23 6 -31 6h-6q-9 0 -17 -2q-11 -3 -17 -6q-6 -4 -32 -20t-30 -23q-3 -5 -3 -9q0 -2 1 -4q1.97949 -4.94824 16 -6l40 -3q36 -3 50 -4z" />
</svg>
