<?xml version="1.0" standalone="no"?>
<!DOCTYPE svg PUBLIC "-//W3C//DTD SVG 1.1//EN" "http://www.w3.org/Graphics/SVG/1.1/DTD/svg11.dtd" >
<svg xmlns="http://www.w3.org/2000/svg" xmlns:xlink="http://www.w3.org/1999/xlink" version="1.1" viewBox="-10 0 1034 1024">
   <path fill="currentColor"
d="M628 501q25 6 43.4346 11.3145q19.5654 4.68555 47.4502 14.2354q29.1152 9.4502 42.3398 16.79q13.7754 6.66016 22.9951 16.0596q9.78027 8.60059 15.3301 17.5205q4.79785 6.00977 9.49023 23.3594q3.95996 12.7207 2.19043 35.04q-1.23047 20.6807 -7.66504 32.1201
q-5.56543 11.5605 -14.9658 15.3301q-9.51172 4.19238 -32.1191 -20.4395l-48.9102 -53.29q-5.57031 -6.04004 -32.8506 -33.9453q-24.0811 -25.4775 -32.1201 -32.4854l-28.4697 -24.8193q-14.1299 16.21 -29.9297 34.3096q-15.2002 16.9004 -39.3594 37.4512
q-36.8408 29.4492 -49.1094 39.3262q-25.7314 19.123 -48.1582 31.8086q-19.4971 11.2705 -39.2412 19.0264l-16.6465 6.53906q-8.68555 3.74902 -12.4854 2.08105q-3.2002 -1.33203 -3.86523 -3.56738q-0.334961 -1.76465 2.08203 -5.64746
q3.58301 -3.11719 13.377 -9.80957q10.2061 -6.30762 24.376 -15.7568q14.8301 -9.55078 32.1055 -24.376q17.7246 -15.1748 41.6182 -39.5371q24.1064 -24.6377 47.3008 -55.8408q23.8057 -31.7969 43.9902 -61.6318q20.8154 -30.165 36.8652 -56.9404
q16.9502 -27.2246 22.6299 -40.1494q7.32031 -14.0752 5.11035 -18.25q-0.790039 -4.8252 -10.2197 -6.93555q-5.57031 -1.88965 -16.0605 1.09473q-9.50977 2.01562 -27.7393 5.47559q-16.7705 2.54004 -36.1357 6.56934q-18.6348 2.9707 -32.8496 8.03027
q-13.7852 3.94043 -22.2646 8.03027q-7.52051 3.91016 -13.8701 4.37988q-5.65039 0.530273 -21.9004 -13.1396q-7.75 -7.33008 -19.3447 -20.8057q-10.4053 -13.5244 -15.6953 -24.4551q-3.70996 -11.0693 -1.45996 -13.8691q3.75 -4.2002 8.75977 -4.38086
q5.99023 0.180664 18.9805 2.91992q14.0098 2.26074 32.1201 2.9209q19.8896 0.339844 37.2295 -0.730469q18.6602 -1.92969 59.1299 -7.2998q41.5303 -5.62988 56.5752 -10.585q15.9551 -5.04492 24.4551 -11.3154q9.5 -6.72949 13.5049 -14.2344
q4.99512 -7.49512 7.66504 -9.49023q3.33008 -2.00488 13.8701 1.8252q10.46 4.16992 17.8848 8.75977q8.5752 4.41016 24.4551 16.4248q17.1201 11.9854 24.0898 20.8047q8.03027 9.18066 7.30078 13.1406q-1.27051 4.04004 -18.25 13.1396
q-16.0205 8.90039 -26.2803 18.9805q-8.74023 9.91992 -16.79 21.8994q-6.9502 11.0205 -30.6602 48.9102q-25.5674 40.5508 -30.6602 47.4502l-22.6299 30.6602v0zM154 189q2 -5 12 -5h6q48 13 76 29q18 9 29 20q7 9 13 29q2 9 2 17q0 19 -11 27q-4 2 -9 2q-7 0 -15 -5
q-30 -21 -93 -93q-10 -11 -10 -19v-2zM175 562q3 -33 28 -58q13 -13 13 -27q0 -11 -8 -22q-6 -8 -16 -8h-2q-24 9 -42 13q-5 1 -10 1q-23 0 -43 -11q-7 -2 -7 -7q0 -1 1 -3q0 -5 7 -5h4q13 0 51 -14q30 -12 53 -30q11 -9 23 -9q9 0 19 5q33 18 55 37q8 8 8 16q0 10 -13 20
q-18 18 -43 52q-26 35 -26 52v1q0 25 9 41q21 28 24 46q1 4 1 8q0 18 -10 37q-3 3 -6 8q42 1 145 42q103 39 176 55q52 12 141 16q72 8 138 8q33 0 64 -2q12 -1 20 -1q13 0 13 3q0 6 -27 19q-46 24 -117 57q-34 16 -57 17q-12 0 -64 -15q-78 -22 -157 -59q-123 -57 -193 -81
q-55 -18 -86 -20q-27 0 -79 33q-7 3 -14 3q-14 0 -30 -12q-24 -20 -24 -31v-2q3 -6 25 -9q24 -1 53 -12q12 -4 30 -8q3 -6 5 -12q1 -6 1 -14q0 -10 -2 -23q-3 -15 -19 -47q-12 -21 -12 -48z" />
</svg>
