<?xml version="1.0" standalone="no"?>
<!DOCTYPE svg PUBLIC "-//W3C//DTD SVG 1.1//EN" "http://www.w3.org/Graphics/SVG/1.1/DTD/svg11.dtd" >
<svg xmlns="http://www.w3.org/2000/svg" xmlns:xlink="http://www.w3.org/1999/xlink" version="1.1" viewBox="-10 0 1034 1024">
   <path fill="currentColor"
d="M760 419l-5 26q-2 11 -4 32q-2 22 -3 34q0 1 -1 50l-1 97l-3 84v18q0 14 2 16q1 1 2 1q5 0 14 -4q10 -4 37 -20l30 -18l121 -77q5 -3 8 -3q2 0 4 2t2 4q0 3.31348 -4 7l-102 94q-26 24 -30 28l-64 56l-20 20q-14 14 -19 14h-2q-5 0 -13 -6q-12 -8 -20 -25q-8 -18 -12 -28
q-3 -8 -3 -14v-3q0 -4 7 -18q6.55566 -13.1113 8 -42l3 -60q1 -20 1 -129v-63q0 -26 -4 -50.5t-11 -37.5q-8 -15 -8 -18v-2q0 -4 2 -7q4 -5 17 -4q6 0 26 5q9.47363 2.10547 16 7l20 15q11 8 9 19zM591 263l24 -3q5 -1 64 -12q51 -10 62 -12q10 -2 32 -7t28 -7t24 -7
q22 -6 24 -6h3q10 0 25 5q18 5 27 14t9 15v1q0 2 -8 9q-5.2666 4.21387 -19 7l-69 14q-48.8682 9.24512 -54 10l-68 10q-27 4 -51 4h-7q-7 0 -25 -3q-12 -2 -21 -5q-10 -3 -15 -8q-4 -4 -4 -9v-2q0 -6 19 -8zM415 434l-13 54q-6 25 -17 56q-15 45 -26 71
q-18.7207 43.3525 -26 55l-10 16l33 20q11 8 33 23q16 11 22 21t7 21q1 7 1 15v8q0 9 -7 19t-13 10h-3q-8 0 -18 -6t-13 -9q-8 -8 -29 -31q-22.3457 -25.5381 -26 -29l-19 -18q-12 16 -24 28q-12 14 -33 31q-28 23 -50 35q-29 16 -50 25q-22 9 -41 14l-24 6l-14 3h-2
q-2 0 -4 -2q-1 -2 -1 -3q0 -3.38477 3 -5l13 -7q6 -2 15 -7q29.3203 -16.7549 42 -26l48 -35q22 -16 42 -35q17.5 -17.5 34 -40l11 -15l-49 -32q-18 -9 -24 -13q-17 -12 -26 -16q-10 -5 -10 -10v-2q0 -6 7 -26q8 -22 9 -23l19 -69q11 -38 13 -51l22 -114q0 -3 4 -38
q4 -31 4 -42v-7q0 -11 -2 -32q-2 -25 -6 -40q-4 -16 -4 -20t1 -6q1 -4 5 -5q3 -1 7 -1h5q3 0 20 7q11 5 27 15q17 10 24 18q7 10 8 16q0 15 -9 26q-3.28613 4.38086 -10 29l-12 44l-37 140q-1 5 -15 49l-32 103q-5 16 -5 21v3q0 4 11 8q3 1 18 8l30 13l30 14
q13.8496 -24.7314 16 -30l20 -49q17 -42 19 -51q7 -28 13 -54l6 -26q3 -13 3 -36v-14v-18q0 -2 -2 -19q-1 -10 -5 -21q-2 -6 -2 -9t1 -4q2 -6 8 -5q7 1 25 5q5 1 30 11q13 5 18 12q6.03027 11.0547 5 13l-9 17l-9 43zM491.367 905.315q-3.36719 2.68457 -5.11133 3.08496
q-2.25586 -0.400391 -2.32031 -0.0244141q0.0644531 -0.375977 -1.06934 -0.0244141q-0.866211 -0.351562 -2.66797 -1.89062q-4.19824 -4.46094 -10.624 -69.1699l-2.25098 -85.2852q-2.24219 -24.1338 -2.24219 -53.7598v-448.126q-0.0810547 -66.1201 -39.2393 -98.4932
q-12.8418 -10.627 -12.6074 -19.8369q-0.234375 -7.79004 11.335 -12.1953q1.43066 -0.594727 4.27148 -0.367188q15.1592 -0.227539 60.5381 18.3564q28.6211 11.416 38.7051 21.917q12.916 13.499 10.2949 19.3984q-0.378906 1.10059 -0.0585938 3.5127
q-0.320312 2.58789 -4.87891 10.8906q-15.4414 28.6973 -15.3223 61.3105q-0.119141 82.3867 -1.10449 243.054q59.9854 -5.66699 78.416 -13.9004q16.5693 -7.7666 21.8623 -7.42773q7.70703 -0.338867 16.9043 10.2656q7.80273 8.39551 8.02246 17.8311
q-0.219727 6.56445 -2.33301 10.5498q-6.88672 14.0146 -40.6982 18.1172q-34.1885 4.89746 -54.3076 8.97168q-8.88086 1.92578 -27.8818 2.22559q0.000976562 5.7002 0.112305 19.2549q-0.111328 14.4453 0.112305 68.9629q-0.223633 54.4824 -3.58789 128.46
q-5.63574 131.022 -22.2686 144.338z" />
</svg>
