<?xml version="1.0" standalone="no"?>
<!DOCTYPE svg PUBLIC "-//W3C//DTD SVG 1.1//EN" "http://www.w3.org/Graphics/SVG/1.1/DTD/svg11.dtd" >
<svg xmlns="http://www.w3.org/2000/svg" xmlns:xlink="http://www.w3.org/1999/xlink" version="1.1" viewBox="-10 0 1034 1024">
   <path fill="currentColor"
d="M639.98 615q-15.9805 23 -30.415 44q-14.5654 21 -43.0557 56q-28.5098 35 -62.4102 67.5q-34.0996 32.5 -63.9893 53.5q-30.334 21.1553 -52.1406 32l-22.1201 11q-11.8496 6 -16.5898 3.5q-4.25977 -2.5 -5.13477 -6q-0.125 -3.5 2.76465 -9.5
q2.11035 -4 17.7754 -16.5q13.335 -10.5 32.3896 -26.5q18.9453 -16 42.6602 -41q23.2852 -25 55.2998 -66.5q31.9854 -41.5 60.8301 -85q29.1553 -43.5 51.3506 -85q22.8047 -41.5 39.8945 -78q16.9102 -36.5 24.4902 -54.3701q7.41992 -18.1299 5.53027 -23.46
q-1.11035 -5.66992 -11.0605 -8.16992q-6.0498 -1.5 -17.3799 1.29004q-10.6699 3.20996 -30.0195 6.4502q-18.6504 3.75977 -39.1055 7.74023q-20.5449 4.01953 -35.5498 9.45996q-14.9951 5.55957 -24.0947 9.45996q-8.90039 4.09961 -15.0107 5.15918
q-5.88965 0.94043 -23.6992 -15.4795q-8.19043 -8.58008 -20.9355 -24.5098q-12.2549 -16.0703 -16.9854 -28.8105q-4.26953 -13.2598 -1.5791 -16.3398q4.35645 -5.16016 9.47949 -5.16016q5.83008 0.240234 20.54 3.44043q8.85449 2.35449 34.7598 3.43945
q20.5303 1.36035 40.29 -0.859375q20.2402 -1.78027 63.9902 -8.60059q44.25 -7.17969 61.2246 -12.4697q17.0254 -5.70996 26.4658 -13.3301q9.55957 -7.37988 14.6143 -16.7695q4.94531 -8.61035 8.29492 -11.1807q3.65039 -2.42969 15.0107 2.15039
q6.63965 2.41992 19.3545 10.3203q8.28516 5.09961 26.4648 19.3496q17.8203 13.75 26.0703 24.5098q8.75 10.2402 7.90039 15.4805q-1.15039 4.75977 -19.75 15.4795q-18.4004 10.2803 -28.4404 22.3604q-9.95996 11.9199 -18.1699 27.4805
q-7.79004 15.4395 -33.1797 66.4395q-29.2236 58.2129 -33.1807 65q-0.429688 0 -24.4893 42l52.1396 73q29.9199 42 67.1504 79q28.7695 29 57.6699 49q23.9521 18.1318 67.9395 41l44.2402 23l22.1201 13q11.7998 7 12.6396 10q1.16016 2 0.790039 4
q0.370117 2 -0.790039 5q-3.09473 6.53809 -15.7998 8l-17.3799 2q-25.6602 3 -30.0205 3q-18.6396 1 -33.9697 2q-14.6699 1 -26.0703 1h-8.68945q-20.9102 0 -30.8105 -4q-13.0996 -5 -22.9092 -14q-10.1904 -8 -31.6006 -40q-3.58984 -6 -45.0303 -74
q-16.873 -27.8135 -41.0791 -75zM411.089 429.911l-0.289062 0.339844l-1.94629 3.45898q-1.85352 3.29004 -2.00391 3.50879l-3 12q0.150391 -0.21875 -6.02734 30.1025l-12 44q-4.82227 18.6787 -16.0654 53.2197q-10.6289 33.0615 -16.1631 44.4395l-32.1982 66.2002
q17.6045 11.8193 31.3848 19.083q17.2197 9.73633 26.1279 20.6162q9.0918 11.1201 13.8799 29.6777q3.21191 10.4424 3.21094 19.9258q0.000976562 9.5166 -2.19336 16.8965q-2.80566 12.6201 -7.3623 17.1426q-5.44238 5.47656 -9.44336 5.47656h-5
q-5 0.000976562 -10.9863 -1.09766q-9.01367 -2.90137 -29.6484 -24.4678q-18.3652 -18.4336 -48.3018 -51.0879q-19.0635 20.6543 -26.0449 27.873q-7.01855 6.78125 -30.0107 25.3789q-27.0078 21.4023 -47.543 32.8457q-20.4648 11.5566 -44.7041 20.2373
q-46.7607 17.3193 -68.542 21.1689q-7.21289 1.14941 -7.21875 1.14941h-2q-6 0.000976562 -9.89062 -4.83594q-2.10938 -2.16309 -2.1084 -5.67773q-0.000976562 -5.48535 6.76172 -8.95801q17.2373 -8.52734 23.1514 -11.0752q19.0859 -8.45215 34.4873 -19.7256
q21.5986 -15.7266 41.3818 -29.5547q21.2168 -14.1719 50.9941 -44.7695q14.2227 -14.4023 21.7217 -24.0449q7.50098 -9.35742 14.3408 -19.082l-71.6826 -47.1611q-14.1572 -9.11426 -17.1611 -13.1182q-3.99609 -4.99609 -3.99512 -12.9961
q-0.000976562 -1 7.2168 -24.4619l21.9502 -82.8252l9.96387 -42.8516l24.9453 -138.735q0.922852 -5.12598 4.93262 -50.4219q2.99121 -33.7148 2.99121 -50.7041v-13q-0.000976562 -13 -0.993164 -31.7354q-0.0078125 -23.2646 -5.72168 -39.5957
q-4.28613 -10.6689 -4.28516 -16.627q-0.000976562 -6.04199 4.29199 -10.5303q4.70703 -4.51172 13.083 -5.47168q0.608398 -0.0390625 0.624023 -0.0390625h2q9.11035 -0.000976562 19.3945 5.6084l22 12q11.6055 6.39062 17.6504 10.4238
q13.9551 10.9668 18.3906 15.0811q8.56348 8.88477 8.56348 18.8857v4q0.000976562 6 -5.19922 16.583q-4.7998 10.417 -9.09277 21.5938q-3.52734 9.34863 -11.8389 44.9658l-14.0146 60.0605q-22.8535 94.7969 -35.9834 145.93l-7.98438 36.9297
q-15.8857 55.9375 -31.0215 112.482q31.1357 17.4551 37.8965 19.7744q16.2393 7.68066 33.3408 15.3047q5.89844 -8.62402 10.9658 -19.3457q10.9326 -22.2783 17.291 -40.1396q24.6416 -67.1387 27.6982 -94.8848q1.9248 -16.1025 1.96289 -16.7051l1.99121 -31.8633
q-0.0107422 0.314453 -0.00976562 -27.4463l-1.92969 -20.2588q-7.07031 -22.9775 -7.07031 -23.9805v-3q-0.000976562 -20 18.999 -15.999q0 -0.000976562 22.6807 5.66016q9.31934 2.33887 30.4268 11.8018q14.8926 6.53711 21.5654 14.1396
q6.32715 6.39746 6.32617 14.3975q0.000976562 3 -1.08008 5.26465zM235.87 475.133q0.129883 -0.132812 -0.0166016 0.0703125z" />
</svg>
