<?xml version="1.0" standalone="no"?>
<!DOCTYPE svg PUBLIC "-//W3C//DTD SVG 1.1//EN" "http://www.w3.org/Graphics/SVG/1.1/DTD/svg11.dtd" >
<svg xmlns="http://www.w3.org/2000/svg" xmlns:xlink="http://www.w3.org/1999/xlink" version="1.1" viewBox="-10 0 1034 1024">
   <path fill="currentColor"
d="M792.36 880.03q-63.3604 -98.0303 -100.101 -172.855q-21.2598 -44.1748 -41.2598 -73.1748q-13 13 -32 41q-50 74 -103 123q-45 42 -107 71q-61 28 -131 40h-7q-10 0 -12 -1q-4 -2 -4 -4q0 -3 9 -7q95 -45 147 -80q46 -31 78 -64q37 -37 63 -77q34 -54 39 -101
q1 -10 6 -13l-2 -2q-25 -25 -46 -34q-23 -11 -42 -17q-6 -2 -12 -8q-1 -1 -1 -2q0 -4.40918 5 -6l22 -7q3 -1 16 -1q32 0 65 21q32 21 87 110q93 150 94.8896 152.295q37.1104 43.7051 81.6201 63.9854q52.2607 26.082 71.4492 37.1602q15.041 8.55957 19.127 13.5029
q3.91406 3.05664 3.58594 5.78809q-0.671875 5.26855 -4.78223 8.68066q-9.16797 6.79395 -24.5059 6.75195l-94.1338 -0.258789q-28.25 0.0947266 -43.8896 -23.875zM409 424l-72 6q-14 0 -37 -2t-34 -6q-11 -6 -16 -11q-5 -6 -5 -11q0 -4 3 -7t25 -6l158 -17
q10 -26 14 -38t16 -54t14 -56t3 -36q1 -11 1 -18q0 -8 -1 -13q-1 -7 -6 -23q-4 -11 -4 -18q0 -3 1 -5q3 -6 8 -9q2 -1 4 -1q6 0 17 5l31 12q23 9 34 19q12 9 12 16q1 2 1 5q0 5 -3 10l-9 14q-4 6 -8 15l-14 41l-18 53l-24 67q31 -6 60 -10l54 -11l52 -13q26 -7 39 -12
q12 -4 18 -5h4q9 0 21 3q15 4 28 10t21 14q7 7 7 13v1q-1 4 -19 11t-42 14q-23 7 -94 19q-70 12 -116 17l-52 7l-40 80l-48 87q-32 53 -66 96q-34 44 -66 75q-32 32 -63 56t-59 42q-28 17 -46 26l-20 12q-2 1 -4 1q-4 0 -6 -4q-1 -3 -1 -5q0 -4 3 -6l18 -15q12 -9 45 -41
q33 -30 54 -52q21 -20 55 -60t56 -72q22 -31 48 -76q27 -45 40 -72z" />
</svg>
