<?xml version="1.0" standalone="no"?>
<!DOCTYPE svg PUBLIC "-//W3C//DTD SVG 1.1//EN" "http://www.w3.org/Graphics/SVG/1.1/DTD/svg11.dtd" >
<svg xmlns="http://www.w3.org/2000/svg" xmlns:xlink="http://www.w3.org/1999/xlink" version="1.1" viewBox="-10 0 1034 1024">
   <path fill="currentColor"
d="M740.155 722.2q-14.1553 16.7998 -28.0078 34.7793q-14.1475 18.0205 -38.9365 43.6602q-24.2109 26.3604 -53.9658 49.9502q-29.2451 24.4102 -55.3311 39.5898q-25.9141 15.8203 -45.084 23.6807l-19.127 8.13965q-10.0205 4.26465 -14.3447 2.58984
q-4.3584 -1.58984 -4.44043 -4.44043q0.0820312 -2.14941 2.39062 -7.0293q3.69141 -4.12012 15.3701 -12.21q11.3213 -7.91016 28.0078 -19.6104q16.3135 -12.2998 36.8867 -30.3398q20.4268 -18.96 47.8164 -49.21q27.6104 -30.75 52.5986 -62.9004
q25.0117 -31.8496 44.4014 -62.8994q19.6104 -30.9502 34.4971 -57.7207q15.1133 -27.2295 21.1758 -40.6992q5.9375 -13.5303 4.78223 -18.5q-1.84473 -5.03027 -9.56348 -7.03027q-5.28125 -1 -15.0283 1.11035q-9.25293 2.88965 -25.957 5.5498
q-32.2959 6.33984 -33.8145 6.66016q-28.2275 16.1289 -30.7393 8.13965q-7.25586 -26.1201 2.3916 -59.9404q5.11719 -16.1426 55.3301 -7.39941q38.5361 -6.12012 52.9404 -10.7305q14.5957 -4.38965 22.8838 -11.4697q7.71191 -6.91992 12.6377 -14.4297
q4.07422 -7.49023 7.17188 -9.62012q2.90234 -1.87012 12.9795 1.84961q9.92285 4.28027 16.7363 8.87988q7.18652 4.40039 22.8838 16.6504q15.3027 11.75 22.542 21.0898q7.76074 8.66016 6.83105 13.3203q-1.07031 4.33984 -17.0771 13.3193
q-15.9932 9.02051 -24.5928 19.2402q-8.40039 10.7803 -15.71 22.2002q-6.69043 11.5801 -28.6904 49.5801q-23 40 -28.6904 48.0996l-21.1768 31.0801l0.626953 0.605469l54.1807 25.1777q21.96 10.2051 51.5996 32.6367q27.46 20.4004 46.4404 44.7607
q18.0195 24.6396 25.7998 44.7598q8.21973 20.8799 7.73926 37.2998q0.480469 14.5801 -6.87988 25.1777q-4.63965 6.40234 -8.59961 7.45996q-3.04004 0.942383 -7.74023 0.932617h-3.43945q-3.89844 0 -11.1807 -1.86523q-11.6797 -3.125 -22.3594 -15.8525
q-7.32031 -9.27246 -25.8008 -28.9072q-1.58105 -0.621094 -36.9795 -52.2207q-25.54 -38.1445 -33.54 -47.5566zM317.156 335.65q0.84375 423.35 1.04395 423.35l-3.60059 3q-4.59961 4 -8.5498 3.5q-11.0498 -2.5 -10.3496 3.5q0.299805 2 -8.10059 2l-13.5 17
q-11.0996 14 -6.2998 -3l3.60059 -14l-6.30078 14q-2.09961 2 -3.59961 2q-0.5 0 2.41211 -177.65q3.08789 -198.35 1.04395 -247.35q-0.956055 -24 -3.13184 -126.65q-0.824219 -44.3496 -35.4961 -80.75q-5.32812 -5.59961 -5.21973 -11.0498
q-0.108398 -4.5498 3.13086 -6.7998q10.7607 -7.75 25.0576 -7.65039q11.7031 -0.0996094 24.0117 5.9502q71.6914 34.9502 74.2109 39.9502q1.48047 3 1.16016 5.9502q-2.67969 6.0498 -8.12012 19.5498q-23.5596 57.5 -23.4033 135.15zM168.36 889l-25.5508 26
q-8.80957 9 -18.25 15q-1.55957 1 -3.0625 1q-2.49707 0 -5.78613 -1.47266q-6.0332 -3.23633 -14.5107 -12.5273l-18.25 -20q-10.9502 -12 -15.208 -18.2803q-4.74219 -7.71973 -5.23242 -14.2588q0.490234 -5.46094 2.13867 -7.97168q3.35156 -3.48926 12.1113 -3.48926
q7.24023 0 15.1279 -2.36719q8.52637 -2.72363 12.9619 -4.63281l25.5508 -11q1.85254 -0.712891 54.0195 -30l89.0605 -50l57.6699 -35l12.4092 -7q5.44043 -3 7.42969 -3q4.01074 0 5.02539 4.12305q0.985352 1.87695 0.685547 3.83496q0.289062 3.90234 -2.91992 7.04199
l-10.2207 10q-27.5879 27.0283 -53.29 49l-97.0898 83zM420.61 487.72q-109.801 6.3623 -113.841 7.42676l-3.77734 0.995117q-3.99219 3.8584 -4.89551 4.08301q-19.0967 2.77539 -19.8281 2.31738q-0.268555 -7.54199 -0.339844 -18.5166
q0.0712891 -5.02539 -5.6084 -19.833q-3.18359 -8.81348 7.71289 -8.81348h8.41309q20.623 -9.60059 23.6826 -9.80176q91.8711 -5.57715 108.481 -8.69727v-214.52q0.389648 -74.3604 -46.9902 -111.601q-15.6201 -12.7598 -11.4297 -22.3193
q2.80957 -5.44043 10.1592 -7.44043q17.6504 -3 71.1201 19.8398q51.5303 21.1602 50.7998 44.6406q-0.269531 6.51953 -3.80957 12.3994q-14.6611 27.4971 -15.2402 76.8799l-3.80957 324.88v60.7607q-0.536133 114.433 -5.08008 197.159q-7.33008 133.44 -30.4805 130.2
q-9.43652 -1.68555 -11.4297 -75.6396l-2.54004 -94.2402l-2.54004 -59.5195zM676.64 389.994l-68.3086 21.2607q-14.3311 4.74512 -35.7598 11.9697q-15.5713 5.77539 -23.8525 11.6895q-7.71875 6.08594 -13.6758 6.86426q-1.04297 0.22168 -1.86133 0.172852
q-4.18164 0.0488281 -9.98145 -3.30566q-4.2002 -2.64551 -9.34961 -7.41309q-1.85059 -2.23242 -4.35059 -4.74121q-6.5 -8.49121 -13.4727 -17.8184q-7.02734 -9.67285 -8.79004 -18.8545q-1.2373 -4.81836 -1.14551 -8.4248q-0.0917969 -2.39355 0.790039 -4.42383
q0.118164 -0.969727 1.14453 -1.59961q4.11914 -3.49316 8.9834 -2.60938l17.8428 3.24316q2.14746 -0.00390625 5.28809 0.452148q6.85938 -0.456055 15.0361 -2.40039q21.8232 -7.05566 52.8213 -12.835q25.5254 -5.125 79.3818 -22.7461l3.65332 -1.19531
q6.9668 -2.2793 7.34277 -2.4043l1.95703 -0.639648v-25.7949q-0.333008 -17.4404 -1.34863 -28.1846q-2.98438 -24.2559 -2.96387 -26.2109l-2.62988 -15.4912q-14.3906 9.44629 -24.0078 15.1895q-11.3828 7.25684 -26.9072 14.1572q-15.4756 7.09961 -25.9785 9.75586
q-9.49707 2.34375 -21.8154 4.82031q-3.68164 0.523438 -6.32129 0.750977q-4.36035 -0.227539 -6.18164 -1.51758q-1.17871 -0.709961 -2.43164 -1.94434q-1.74707 -1.76562 -1.90234 -3.31445q0.155273 -0.451172 -0.0615234 -0.74707q1.2168 -1.7041 2.35645 -5.87793
q0.860352 -1.82617 2.31836 -3.48145q0.541992 -0.344727 3.88867 -2.8584l15.6592 -10.3369q16.9941 -11.1494 38.3896 -28.6699q9.60449 -7.47949 18.8896 -17.1562q9.71484 -9.32324 19.0781 -20.9209q18.6367 -22.4023 28.7607 -41.1455
q10.8701 -21.2441 16.1982 -34.9814l8.69141 -22.4062q1.98633 0.130859 4.60742 -8.5q0.378906 -1.36914 1.44824 -1.75586q2.93066 -1.61328 6.38672 -3.29395q0.543945 -0.319336 1.00195 -0.0966797q3.54199 -0.222656 8.64258 4.9541q2.89941 2.82324 5.58398 6.4668
q13.3154 17.3564 19.9258 26.9365q6.38965 10.4199 12.9033 21.4316q6.48633 10.9883 7.82324 18.1621q0.663086 3.82617 1.05371 7.44434q-0.390625 2.38184 -0.519531 4.23633q-0.871094 1.14551 -1.45117 2.35645q-2.41992 2.78906 -10.9609 3.86523
q-11.459 0.923828 -17.4229 5.36719q-8.03613 5.55664 -18.7715 12.8652q-11.2646 7.69141 -13.9961 11.082q-3.26855 3.60938 -6.68359 7.39062q8.41504 6.21875 14.4814 9.95898q6.93359 4.25977 13.0361 10.2129q0.897461 1.04688 1.71973 1.625
q5.17773 5.42188 5.36133 9.8418q-0.183594 4.58008 -4.15137 11.6797q-4.03223 5.90039 -5.74707 12.6904q-2.28516 6.20996 -3.18164 12.4883q-0.103516 2.72168 -1.04785 21.6533l-0.271484 7.16016l-0.542969 14.4248l-0.151367 4.02148
q12.9102 -2.53809 22.9199 -4.93555q22.9902 -6.60254 28.5957 -7.94727l7.74219 -2.40137q15.6523 -5.25391 15.4893 -4.80273l7.74512 -2.40234q9.41797 -3.04883 22.0762 -10.8291q10.3418 -7.21973 14.5205 -7.68555q13.8213 1.46582 13.7891 7.68652
q0.0322266 0.779297 1.06445 1.09277q11.9678 10.6865 17.0371 20.6367q6.93066 15.0498 12.3711 24.085q0.55957 0.964844 2.33594 14.4922q0.223633 1.47266 -0.103516 2.00879q-0.672852 3.46387 -3.30859 6.46387q-4.36426 5 -21.043 5.74902
q-4.32129 0.250977 -8.70508 -0.397461q-36.6162 -1.35156 -39.5176 -1.59766q-30.0986 4.24609 -37.6309 5.16992q-5.46777 1.07617 -35.5947 6.74414q-11.873 2.33203 -23.3994 5.24805q-2.47363 17.084 -6.31641 42.7598q-4.15723 27.3242 -16.3652 68.3174
q-11.792 41.0068 -31.0703 86.3037q-18.7217 44.7031 -39.9131 74.873q-20.8086 29.8301 -36.4092 45.5459q-1.39941 1.28418 -1.80859 1.81641q-14.5908 14.4678 -23.3994 21.584q-9.19141 7.88379 -16.8984 11.8252q-8.29297 4.05859 -10.8223 3.40039
q-1.4707 -0.341797 -2.96387 -0.348633q-4.50684 -0.993164 -5.03223 -2.58496q-0.474609 -4.4082 -2.02148 -4.4541q-0.453125 0.0458984 -0.0273438 -0.713867q-0.388672 -3.87109 3.90332 -8.73145l2.64941 -3q0 -0.000976562 5.29785 -6.00195l2.64844 -3
q11.0752 -12.5068 17.291 -21.0928q9.78418 -13.4141 23.5117 -33.4365q13.2725 -19.9775 26.4854 -46.5742q12.7871 -26.4033 23.7939 -54.9561q10.9932 -28.4473 20.3008 -66.1855q9.58008 -36.8311 11.8906 -56.4795l1.22266 -10.3984q2.5791 -20.3838 2.44531 -20.8086z
" />
</svg>
