<?xml version="1.0" standalone="no"?>
<!DOCTYPE svg PUBLIC "-//W3C//DTD SVG 1.1//EN" "http://www.w3.org/Graphics/SVG/1.1/DTD/svg11.dtd" >
<svg xmlns="http://www.w3.org/2000/svg" xmlns:xlink="http://www.w3.org/1999/xlink" version="1.1" viewBox="-10 0 1034 1024">
   <path fill="currentColor"
d="M499.38 870.703q-11.4707 -10.9814 -11.4707 -17.8447q0 -9.61035 22.9395 -10.9834q49.7021 -1.37305 98.1289 -6.86328q66.2695 -4.11816 141.459 -13.7285q62.4453 -5.49121 124.891 -19.2197q7.64551 -1.37207 15.293 -1.37207q17.8418 0 34.4092 6.86328
q19.1162 9.61035 28.0361 16.4736q25.4873 15.1016 25.4873 30.2021v2.74609q-1.27344 13.7266 -26.7617 16.4736q-53.5244 0 -122.342 6.86328q-141.459 8.23633 -249.782 24.71q-8.92188 1.37305 -15.2939 1.37305q-19.1152 0 -30.5859 -8.23633
q-19.1143 -12.3555 -34.4072 -27.457zM526.479 778.122q-0.478516 -2.12207 4.44629 -10.2354q4.0752 -7.88672 19.2666 -18.4219q14.8086 -10.4648 41.4951 -38.8936q26.3135 -28.5713 45.9424 -53.2227q19.3711 -24.3486 45.9424 -67.5508
q26.4287 -42.7979 47.4238 -84.9502q21.0049 -41.8477 34.8271 -81.8799q14.1777 -39.9678 26.3057 -86.998q11.8721 -46.9697 18.5244 -84.9502q7.34766 -42.0195 4.81641 -66.5273q-1.46875 -16.4922 -5.92773 -39.917q-4.54102 -23.5752 -5.1875 -30.7051
q-0.353516 -6.87012 1.4834 -13.3057q2.16309 -7.56445 17.7832 -6.14062q6.37988 0.576172 23.7119 10.2354q16.668 9.34082 26.6758 16.8877q9.99219 7.45312 25.5645 23.0283q16.4277 15.4248 21.4893 28.6582q5.93848 13.7666 3.33496 19.4473
q-1.39648 4.31934 -10.0039 10.2334q-8.39258 6.08594 -16.6729 19.4473q-7.71973 13.6387 -14.8193 33.7754q-6.90039 20.8633 -23.7119 80.8574q-17.1885 60.0059 -36.3096 111.049q-18.8789 50.957 -45.2012 97.2324q-25.6777 46.7246 -55.9453 85.9746
q-29.7324 39.75 -66.3193 73.1807q-36.4131 33.5693 -58.1689 48.6152q-22.2441 14.9541 -32.9746 20.9814q-11.2695 5.97266 -19.6357 9.21289q-8.63379 2.75977 -13.3379 0.510742q-4.2959 -1.75098 -4.81738 -5.62891zM134.68 229.24l-6.85938 421.08
q-1.82031 87.6797 -5.87988 160.08q-4.94043 79.5996 -12.7402 97.4395q-8.19141 19.1406 -13.7197 19.1406h-0.980469q-5.5 0.0195312 -14.7002 -31.3203q-5.7998 -18.6602 -11.7598 -46.9805q-6.04004 -27.6797 -5.87988 -45.2393q-0.162109 -18.6484 1.95996 -31.3203
l10.7803 -64.3799q8.85645 -51.332 10.7793 -140.94l3.91992 -182.7q1.40039 -17.0996 0.980469 -34.7998q0.419922 -33.2998 -2.94043 -60.8994q-3.63965 -41.4004 -10.7793 -74.8203q-7.84082 -37.4863 -7.84082 -41.7598v-5.2207q-0.0195312 -5.59961 0.980469 -8.69922
q1 -4.90039 3.91992 -6.95996q5.26758 -2.01172 5.87988 -1.74023l15.6807 6.95996l37.2393 20.8799l136.601 -31.3203l34.6797 -6.71973q9.91602 -1.9834 27.0596 -8.94043l34.3008 -13.9199q13.6396 -8.13965 17.6396 -8.69922q6 -0.44043 25.4805 10.4395
q22.5195 14.1201 34.2998 26.1006q21.2197 22.0195 25.4795 33.0596q4.90039 12.3643 4.90039 24.3604v3.47949q-0.160156 7.12012 -5.87988 24.3604q-6.86133 19.1787 -9.7998 48.7197q-4.48047 45.04 -4.90039 48.7197l-0.980469 156.601l1.95996 287.1
q0.44043 41.6201 -3.91992 78.2998q-3.63965 31.3203 -12.7393 57.4199q-8.05273 24.3604 -13.7207 24.3604h-0.979492q-5.2002 -0.459961 -14.7002 -20.8799q-8.5 -19.5801 -12.7402 -36.54q-4.73438 -20.9277 -3.91992 -38.2803l3.91992 -83.5195v-241.86
q0.240234 -33.3799 -2.93945 -135.72q-2.82031 -105.66 -3.91992 -130.5q-0.900391 -24.1602 -5.88086 -34.7998q-4.01953 -8.36035 -16.6592 -13.9199q-8.45801 -3.48047 -18.6201 -3.48047h-5.87988q-0.55957 0 -30.8604 4.04004l-44 6l-41.7598 5.62012z" />
</svg>
