<?xml version="1.0" standalone="no"?>
<!DOCTYPE svg PUBLIC "-//W3C//DTD SVG 1.1//EN" "http://www.w3.org/Graphics/SVG/1.1/DTD/svg11.dtd" >
<svg xmlns="http://www.w3.org/2000/svg" xmlns:xlink="http://www.w3.org/1999/xlink" version="1.1" viewBox="-10 0 1034 1024">
   <path fill="currentColor"
d="M216.12 348.39l47.04 -40.5898q20.1602 -17.2197 43.6797 -39.3594q23.5205 -22.1406 39.2002 -45.5107l22.4004 -35.6699q15.6797 -24.5996 20.1592 -36.8994q4.48047 -13.5303 8.95996 -17.2207q1.12012 -1.22949 3.36035 -1.22949q5.59961 0 14.5605 3.68945
q14.5596 6.15039 31.3594 24.6006q17.9199 17.2197 29.1201 38.1299q7.83984 13.5303 7.83984 22.1396q0 3.69043 -1.12012 6.15039q-2.23926 4.91992 -20.1602 11.0703q-15.6797 6.14941 -26.8799 11.0693q-11.1992 4.91992 -34.7197 19.6807
q-23.5195 12.2998 -39.2002 23.3691l-48.1602 28.29l-56 34.4404l-31.3594 17.2197l-5.60059 31.9805q-2.23926 12.2998 -4.47949 39.3594q-2.24023 27.0605 -3.36035 41.8203t-1.12012 46.7402l-1.12012 34.4395l-3.35938 103.32v22.1396q0 17.2207 2.24023 19.6807
q1.11914 1.22949 2.23926 1.22949q5.60059 0 15.6807 -4.91992q11.1992 -4.91992 41.4395 -24.5996q30.2402 -19.6807 33.6006 -22.1406l135.52 -94.71q4.48047 -3.68945 8.95996 -3.68945q2.24023 0 4.48047 2.45996q2.23926 2.45996 2.23926 4.91992
q0 3.69043 -4.47949 8.61035l-114.24 115.619q-30.2402 29.5205 -33.5996 34.4404l-71.6807 68.8799l-22.3994 24.6006q-13.4404 17.2197 -21.2803 17.2197h-2.24023q-5.59961 0 -14.5596 -7.37988q-13.4404 -9.83984 -22.4004 -30.75q-8.95996 -22.1406 -13.4395 -34.4404
q-3.36035 -9.83984 -3.36035 -17.2197v-3.69043q0 -1.22949 7.83984 -22.1396q6.7207 -19.6797 8.95996 -51.6602l3.36035 -73.7998q0 -12.2998 1.12012 -73.7998v-77.4902q-1.12012 -30.75 -4.48047 -54.1201q-4.47949 -23.3701 -12.3193 -39.3604
q-7.84082 -15.9893 -8.95996 -22.1396v-2.45996q0 -4.91992 2.23926 -8.61035q3.36035 -4.91992 19.04 -4.91992q14.5605 2.45996 29.1201 6.15039q13.4404 3.68945 17.9199 8.61035zM540 150q28 0 68 21q41 23 41 39q0 12 -4 30q-19 57 -22 133q-3 32 -5 84q74 -16 102 -31
q12 -8 17 -8q71 2 76 25q-1 14 -18 22q-31 13 -58 18q-32 9 -42 12q-7 3 -10 3q-26 0 -57 -11q-7 -2 -11 -5q-4 111 -4 293q105 -17 138 -20q37 -4 73 -9q20 -3 33 -3q24 0 56 18q32 19 36 37q-2 20 -40 21q-27 0 -84 -6l-48 -2q-79 0 -175 13q-101 12 -182 33
q-30 10 -40 10q-17 0 -39 -14q-27 -18 -28 -23q0 -8 15 -11q62 -7 171 -27q38 -6 70 -10q-4 -412 -19 -516q-8 -59 -18 -78q-7 -18 -7 -26q0 -12 15 -12z" />
</svg>
