<?xml version="1.0" encoding="UTF-8" standalone="no"?>
<!-- Made by lì tŕ, for displaying lì tŕ pí symbols. -->

<!-- Size should be 110*110, while glyphs only use points in the 100*100 square in the middle. -->

<svg
   height="115.00072"
   width="115"
   version="1.1"
   id="svg1"
   sodipodi:docname="6.svg"
   inkscape:version="1.3.2 (091e20e, 2023-11-25, custom)"
   xmlns:inkscape="http://www.inkscape.org/namespaces/inkscape"
   xmlns:sodipodi="http://sodipodi.sourceforge.net/DTD/sodipodi-0.dtd"
   xmlns="http://www.w3.org/2000/svg"
   xmlns:svg="http://www.w3.org/2000/svg">
  <defs
     id="defs1" />
  <sodipodi:namedview
     id="namedview1"
     pagecolor="#ffffff"
     bordercolor="#666666"
     borderopacity="1.0"
     inkscape:showpageshadow="2"
     inkscape:pageopacity="0.0"
     inkscape:pagecheckerboard="true"
     inkscape:deskcolor="#d1d1d1"
     inkscape:zoom="2.8284271"
     inkscape:cx="15.379572"
     inkscape:cy="63.462833"
     inkscape:window-width="1920"
     inkscape:window-height="1001"
     inkscape:window-x="-9"
     inkscape:window-y="-9"
     inkscape:window-maximized="1"
     inkscape:current-layer="svg1" />
  <path
     d="M 7.5,40.321307 C 14.407455,9.684338 28.378869,7.176211 32.327064,7.532974 59.413669,9.980546 18.661534,61.185783 21.873132,94.11407 24.00289,115.95034 51.212824,105.5229 58.319922,101.12762 94.040888,79.036571 99.023248,7.5 76.240313,7.5 56.319877,7.5 39.655967,74.260019 88.515833,99.247373 99.233164,104.72831 99.56571,104.87078 107.5,107.49973"
     fill="none"
     opacity="1"
     stroke="#000000"
     stroke-linecap="round"
     stroke-linejoin="round"
     stroke-width="10"
     id="path1-5"
     sodipodi:nodetypes="csssssc"
     style="stroke:#ffffff;stroke-width:15;stroke-dasharray:none;stroke-opacity:1" />
  <path
     d="M 7.5,40.321307 C 14.407455,9.6843376 28.378869,7.1762109 32.327064,7.5329737 59.413669,9.9805458 18.661534,61.185783 21.873132,94.11407 24.00289,115.95034 51.212824,105.5229 58.319922,101.12762 94.040888,79.036571 99.023248,7.5 76.240313,7.5 56.319877,7.5 39.655967,74.260019 88.515833,99.247373 99.233164,104.72831 99.56571,104.87078 107.5,107.49973"
     fill="none"
     opacity="1"
     stroke="#000000"
     stroke-linecap="round"
     stroke-linejoin="round"
     stroke-width="10"
     id="path1"
     sodipodi:nodetypes="csssssc" />
</svg>
