<!-- Made by lì tŕ (gentsuenhan). -->
<svg height="300" width="300" xmlns="http://www.w3.org/2000/svg">
<g transform="translate(150 140)scale(100 -100)">
  <path d="M-0.85 -0.86 C-0.75 -0.95 -0.58 -0.99 -0.54 -0.94 -0.55 -1.04 -0.08 -1.04 0 -1.04 V0 H-0.85" fill="#cccccc"/>
  <path d="M-0.85 -0.86 C-0.75 -0.95 -0.58 -0.99 -0.54 -0.94 -0.55 -1.04 -0.08 -1.04 0 -1.04 V0 H-0.85" fill="#cccccc" transform="scale(-1 1)"/>
  <circle cx="0" cy="0" r="1" fill="#dcc8b4" stroke="#000" troke-linecap="round" stroke-linejoin="round" stroke-width="0.03"/>
<g id="white" fill="white">
  <path d="M0 0.4 V0.1 Q0 0 -0.05 0 H-0.3 Q-0.35 0 -0.35 0.1 -0.35 0 -0.4 0 H-0.75"/>
  <path d="M0 1 C-0.99 1 -0.85 0.18 -1.4 -0.5 -1.39 -0.6 -1.347 -0.68 -1.3 -0.7 Q-1.2822 -0.706 -1.2 -0.585 -1.2822 -0.706 -1.2784 -0.725 C-1.273 -0.753 -1.19 -0.835 -1.1411 -0.8376 Q-1.1203 -0.8377 -1.082 -0.769 -1.1203 -0.8377 -1.104 -0.863 C-1.085 -0.887 -0.9848 -0.9484 -0.9712 -0.928 Q-0.944 -0.8768 -0.9396 -0.803 L-0.75 0 0 0.39 0.01 1"/>
</g>
<use href="#white" transform="scale(-1 1)"/>
<g id="lines" fill="none" stroke="#000" stroke-linecap="round" stroke-linejoin="round" stroke-width="0.03">
  <path d="M-0.85 -0.86 C-0.75 -0.95 -0.58 -0.99 -0.54 -0.94 -0.55 -1.04 -0.08 -1.04 0 -1.04"/>
  <path d="M0 0.4 V0.1 Q0 0 -0.05 0 H-0.3 Q-0.35 0 -0.35 0.1 -0.35 0 -0.4 0 H-0.75"/>
  <path d="M-0.3 0.4 C-0.327 0.336 -0.35 0.22 -0.35 0.1"/>
  <path d="M0 1 C-0.99 1 -0.85 0.18 -1.4 -0.5 -1.39 -0.6 -1.347 -0.68 -1.3 -0.7 Q-1.2822 -0.706 -1.2 -0.585 -1.2822 -0.706 -1.2784 -0.725 C-1.273 -0.753 -1.19 -0.835 -1.1411 -0.8376 Q-1.1203 -0.8377 -1.082 -0.769 -1.1203 -0.8377 -1.104 -0.863 C-1.085 -0.887 -0.9848 -0.9484 -0.9712 -0.928 Q-0.944 -0.8768 -0.9396 -0.803"/>
  <path d="M-0.875 -0.97 C-0.9 -1.25 -0.77 -1.35 -0.9 -1.55 -0.561 -1.268 -0.952 -1.088 -0.844 -0.964" fill="white" fill-opacity="0.75"/>
  <path d="M-0.6 0.4 C-0.8 -0.2 -0.9 -0.95 -0.65 -1.3 -1.08 -1 -1.08 -0.15 -0.85 0.4" fill="white"/>
  <path d="M-0.55 0.2 L-0.2 0.05"/>
</g>
<use href="#lines" transform="scale(-1 1)"/>
<path d="M-0.135 -0.69 C-0.1 -0.74 -0.025 -0.75 0 -0.75 S0.1 -0.74 0.135 -0.69" fill="none" stroke="#000" stroke-linecap="round" stroke-linejoin="round" stroke-width="0.03"/>
<g id="r_eye"><ellipse cx="-0.35" stroke="#000" stroke-width="0.03" cy="-0.3" rx="0.1" ry="0.2" fill="#191919"/><circle cx="-0.38" cy="-0.16" r="0.016" fill="white"/></g>
<use href="#r_eye" transform="translate(0.7)"/>
<defs><radialGradient id="gr"><stop stop-color="#ff8c8c" stop-opacity="1" offset="0"/><stop stop-color="#ff8c8c" stop-opacity="0" offset="1"/></radialGradient></defs>
<ellipse id="blush" cx="-0.5" cy="-0.62" rx="0.15" ry="0.1" fill="url(#gr)" opacity="0.2"/>
<use href="#blush" transform="scale(-1 1)"/>
<g fill="none" opacity="1" stroke-linecap="round" stroke-linejoin="round" transform="scale(0.04 0.04)translate(-3.5 -3.5)translate(-20 5)">
<path d="M0 5 H7 C6.75 6.5 6 7 5.25 7 4 7 2.75 6 2 5 1.625 4.5 1.0625 3.5 1 3 H7 L1 0 H7" stroke="#808080" stroke-width="0.9"/>
<path d="M0 5 H7 C6.75 6.5 6 7 5.25 7 4 7 2.75 6 2 5 1.625 4.5 1.0625 3.5 1 3 H7 L1 0 H7" stroke="black" stroke-width="0.75"/>
</g>
<g fill="white" stroke="#000" stroke-linecap="round" stroke-linejoin="round" stroke-width="0.03">
<path id="card" d="M-0.6 -1.1 v-0.35 h0.25 v0.35 Z"/>
<use href="#card" transform="translate(0.31666667 0)"/>
<use href="#card" transform="translate(0.63333333 0)"/>
<use href="#card" transform="translate(0.95 0)"/>
<g transform="translate(0.475 -1.275)scale(0.00175 -0.00175)translate(-55 -55)">
  <path d="M41.642136 10 A22.5 22.5 -257.884882538 1 0 41.642136 45 V105"
  fill="none" opacity="1" stroke="#ff9400" stroke-linecap="round" stroke-linejoin="round" stroke-width="10"/>
  <path d="M105 10 L41.642136 57.5 105 105"
  fill="none" opacity="1" stroke="#ff9400" stroke-linecap="round" stroke-linejoin="round" stroke-width="10"/>
</g>
<g transform="translate(0.158333333 -1.275)scale(0.00175 -0.00175)translate(-55 -55)">
  <path d="M0 5 H7 C6.75 6.5 6 7 5.25 7 4 7 2.75 6 2 5 1.625 4.5 1.0625 3.5 1 3 H7 L1 0 H7"
  fill="none" opacity="1" stroke="red" stroke-linecap="round" stroke-linejoin="round" stroke-width="0.7" transform="translate(5,105)scale(14.285714285714285714285714285714285714285714285714,-14.285714285714285714285714285714285714285714285714)"/>
</g>
<g transform="translate(-0.158333333 -1.275)scale(0.00175 -0.00175)translate(-55 -55)translate(0 11.9047619)">
  <path d="M17.5 21.6666666667 H90"
  fill="none" opacity="1" stroke="red" stroke-linecap="round" stroke-linejoin="round" stroke-width="10"/>
  <path d="M21.6666666667 65 L5 88.3333333333"
  fill="none" opacity="1" stroke="red" stroke-linecap="round" stroke-linejoin="round" stroke-width="10"/>
  <path d="M17.5 70.8333333333 C23 77 33 88.3333333333 61.25 88.3333333333 S99.5 77 105 70.8333333333"
  fill="none" opacity="1" stroke="red" stroke-linecap="round" stroke-linejoin="round" stroke-width="10"/>
</g>
<g transform="translate(-0.475 -1.275)scale(0.00175 -0.00175)translate(-55 -55)">
  <path d="M19.285714285714 105 V5 H90.714285714286 V105 Z"
  fill="none" opacity="1" stroke="#ff9400" stroke-linecap="round" stroke-linejoin="round" stroke-width="10"/>
  <path d="M40.714285714286 25 C86 35 71 64 40.714285714286 65 L69.285714285714 85"
  fill="none" opacity="1" stroke="#ff9400" stroke-linecap="round" stroke-linejoin="round" stroke-width="10"/>
</g>
</g>
</g></svg>